# xmcd
#
# Track frame offsets: 
#        150
#        17765
#        37440
#        59487
#        78967
#        97150
#        121487
#        141432
#        161272
#        178812
#
# Disc length: 2703 seconds
#
# Revision: 2
# Processed by: cddbd v1.5.2PL0 Copyright (c) Steve Scherf et al.
# Submitted via: ExactAudioCopyFreeDBPlugin 1.0
#
DISCID=8f0a8d0a
DTITLE=Yuridia - Habla el corazón
DYEAR=2006
DGENRE=Baladas en español
TTITLE0=Siempre te amaré
TTITLE1=Como yo nadie te ha amado
TTITLE2=Habla el corazón
TTITLE3=Otro día más
TTITLE4=Todo lo que hago lo hago por ti
TTITLE5=Eclipse total de amor
TTITLE6=Estar junto a ti 
TTITLE7=Regresa a mí
TTITLE8=The rose
TTITLE9=El hombre del piano
EXTD=
EXTT0=
EXTT1=
EXTT2=
EXTT3=
EXTT4=
EXTT5=
EXTT6=
EXTT7=
EXTT8=
EXTT9=
PLAYORDER=
